<?xml version="1.0" encoding="UTF-8"?>
<svg xmlns="http://www.w3.org/2000/svg" width="1200" height="700">
  <rect width="1200" height="700" fill="#16213e"/>
  <defs>
    <linearGradient id="g1" x1="0%" y1="0%" x2="0%" y2="100%">
      <stop offset="0%" style="stop-color:#48dbfb;stop-opacity:1"/>
      <stop offset="100%" style="stop-color:#0984e3;stop-opacity:1"/>
    </linearGradient>
    <linearGradient id="g2" x1="0%" y1="0%" x2="0%" y2="100%">
      <stop offset="0%" style="stop-color:#ff6b6b;stop-opacity:1"/>
      <stop offset="100%" style="stop-color:#ee5a24;stop-opacity:1"/>
    </linearGradient>
    <linearGradient id="g3" x1="0%" y1="0%" x2="0%" y2="100%">
      <stop offset="0%" style="stop-color:#6ab04c;stop-opacity:1"/>
      <stop offset="100%" style="stop-color:#27ae60;stop-opacity:1"/>
    </linearGradient>
  </defs>
  <text x="600" y="35" text-anchor="middle" fill="white" font-size="20" font-weight="bold" font-family="DejaVu Sans,sans-serif">Language Comparison: Chart Types, Popularity &amp; Performance</text>
  <text x="25" y="335" text-anchor="middle" fill="white" font-size="14" font-family="DejaVu Sans,sans-serif" transform="rotate(-90,25,335)">Score</text>
  <line x1="80" y1="600" x2="1160" y2="600" stroke="#333355" stroke-width="0.5" stroke-dasharray="4,4"/>
  <text x="70" y="604" text-anchor="end" fill="white" font-size="11" font-family="DejaVu Sans,sans-serif">0</text>
  <line x1="80" y1="494" x2="1160" y2="494" stroke="#333355" stroke-width="0.5" stroke-dasharray="4,4"/>
  <text x="70" y="498" text-anchor="end" fill="white" font-size="11" font-family="DejaVu Sans,sans-serif">20</text>
  <line x1="80" y1="388" x2="1160" y2="388" stroke="#333355" stroke-width="0.5" stroke-dasharray="4,4"/>
  <text x="70" y="392" text-anchor="end" fill="white" font-size="11" font-family="DejaVu Sans,sans-serif">40</text>
  <line x1="80" y1="282" x2="1160" y2="282" stroke="#333355" stroke-width="0.5" stroke-dasharray="4,4"/>
  <text x="70" y="286" text-anchor="end" fill="white" font-size="11" font-family="DejaVu Sans,sans-serif">60</text>
  <line x1="80" y1="176" x2="1160" y2="176" stroke="#333355" stroke-width="0.5" stroke-dasharray="4,4"/>
  <text x="70" y="180" text-anchor="end" fill="white" font-size="11" font-family="DejaVu Sans,sans-serif">80</text>
  <line x1="80" y1="70" x2="1160" y2="70" stroke="#333355" stroke-width="0.5" stroke-dasharray="4,4"/>
  <text x="70" y="74" text-anchor="end" fill="white" font-size="11" font-family="DejaVu Sans,sans-serif">100</text>
  <line x1="80" y1="70" x2="80" y2="600" stroke="#888888" stroke-width="1.5"/>
  <line x1="80" y1="600" x2="1160" y2="600" stroke="#888888" stroke-width="1.5"/>
  <rect x="110" y="150" width="30" height="450" fill="url(#g1)" rx="2"/>
  <rect x="147" y="113" width="30" height="487" fill="url(#g2)" rx="2"/>
  <rect x="184" y="362" width="30" height="238" fill="url(#g3)" rx="2"/>
  <text x="125" y="146" text-anchor="middle" fill="white" font-size="9" font-family="DejaVu Sans,sans-serif">85</text>
  <text x="162" y="109" text-anchor="middle" fill="white" font-size="9" font-family="DejaVu Sans,sans-serif">92</text>
  <text x="199" y="358" text-anchor="middle" fill="white" font-size="9" font-family="DejaVu Sans,sans-serif">45</text>
  <text x="162" y="620" text-anchor="middle" fill="white" font-size="11" font-family="DejaVu Sans,sans-serif" transform="rotate(-30,162,620)">Python</text>
  <rect x="230" y="187" width="30" height="413" fill="url(#g1)" rx="2"/>
  <rect x="267" y="134" width="30" height="466" fill="url(#g2)" rx="2"/>
  <rect x="304" y="309" width="30" height="291" fill="url(#g3)" rx="2"/>
  <text x="245" y="183" text-anchor="middle" fill="white" font-size="9" font-family="DejaVu Sans,sans-serif">78</text>
  <text x="282" y="130" text-anchor="middle" fill="white" font-size="9" font-family="DejaVu Sans,sans-serif">88</text>
  <text x="319" y="305" text-anchor="middle" fill="white" font-size="9" font-family="DejaVu Sans,sans-serif">55</text>
  <text x="282" y="620" text-anchor="middle" fill="white" font-size="11" font-family="DejaVu Sans,sans-serif" transform="rotate(-30,282,620)">JavaScript</text>
  <rect x="350" y="256" width="30" height="344" fill="url(#g1)" rx="2"/>
  <rect x="387" y="282" width="30" height="318" fill="url(#g2)" rx="2"/>
  <rect x="424" y="97" width="30" height="503" fill="url(#g3)" rx="2"/>
  <text x="365" y="252" text-anchor="middle" fill="white" font-size="9" font-family="DejaVu Sans,sans-serif">65</text>
  <text x="402" y="278" text-anchor="middle" fill="white" font-size="9" font-family="DejaVu Sans,sans-serif">60</text>
  <text x="439" y="93" text-anchor="middle" fill="white" font-size="9" font-family="DejaVu Sans,sans-serif">95</text>
  <text x="402" y="620" text-anchor="middle" fill="white" font-size="11" font-family="DejaVu Sans,sans-serif" transform="rotate(-30,402,620)">C++</text>
  <rect x="470" y="219" width="30" height="381" fill="url(#g1)" rx="2"/>
  <rect x="507" y="203" width="30" height="397" fill="url(#g2)" rx="2"/>
  <rect x="544" y="229" width="30" height="371" fill="url(#g3)" rx="2"/>
  <text x="485" y="215" text-anchor="middle" fill="white" font-size="9" font-family="DejaVu Sans,sans-serif">72</text>
  <text x="522" y="199" text-anchor="middle" fill="white" font-size="9" font-family="DejaVu Sans,sans-serif">75</text>
  <text x="559" y="225" text-anchor="middle" fill="white" font-size="9" font-family="DejaVu Sans,sans-serif">70</text>
  <text x="522" y="620" text-anchor="middle" fill="white" font-size="11" font-family="DejaVu Sans,sans-serif" transform="rotate(-30,522,620)">Java</text>
  <rect x="590" y="309" width="30" height="291" fill="url(#g1)" rx="2"/>
  <rect x="627" y="362" width="30" height="238" fill="url(#g2)" rx="2"/>
  <rect x="664" y="134" width="30" height="466" fill="url(#g3)" rx="2"/>
  <text x="605" y="305" text-anchor="middle" fill="white" font-size="9" font-family="DejaVu Sans,sans-serif">55</text>
  <text x="642" y="358" text-anchor="middle" fill="white" font-size="9" font-family="DejaVu Sans,sans-serif">45</text>
  <text x="679" y="130" text-anchor="middle" fill="white" font-size="9" font-family="DejaVu Sans,sans-serif">88</text>
  <text x="642" y="620" text-anchor="middle" fill="white" font-size="11" font-family="DejaVu Sans,sans-serif" transform="rotate(-30,642,620)">Go</text>
  <rect x="710" y="335" width="30" height="265" fill="url(#g1)" rx="2"/>
  <rect x="747" y="399" width="30" height="201" fill="url(#g2)" rx="2"/>
  <rect x="784" y="113" width="30" height="487" fill="url(#g3)" rx="2"/>
  <text x="725" y="331" text-anchor="middle" fill="white" font-size="9" font-family="DejaVu Sans,sans-serif">50</text>
  <text x="762" y="395" text-anchor="middle" fill="white" font-size="9" font-family="DejaVu Sans,sans-serif">38</text>
  <text x="799" y="109" text-anchor="middle" fill="white" font-size="9" font-family="DejaVu Sans,sans-serif">92</text>
  <text x="762" y="620" text-anchor="middle" fill="white" font-size="11" font-family="DejaVu Sans,sans-serif" transform="rotate(-30,762,620)">Rust</text>
  <rect x="830" y="229" width="30" height="371" fill="url(#g1)" rx="2"/>
  <rect x="867" y="240" width="30" height="360" fill="url(#g2)" rx="2"/>
  <rect x="904" y="325" width="30" height="275" fill="url(#g3)" rx="2"/>
  <text x="845" y="225" text-anchor="middle" fill="white" font-size="9" font-family="DejaVu Sans,sans-serif">70</text>
  <text x="882" y="236" text-anchor="middle" fill="white" font-size="9" font-family="DejaVu Sans,sans-serif">68</text>
  <text x="919" y="321" text-anchor="middle" fill="white" font-size="9" font-family="DejaVu Sans,sans-serif">52</text>
  <text x="882" y="620" text-anchor="middle" fill="white" font-size="11" font-family="DejaVu Sans,sans-serif" transform="rotate(-30,882,620)">TypeScript</text>
  <rect x="950" y="362" width="30" height="238" fill="url(#g1)" rx="2"/>
  <rect x="987" y="378" width="30" height="222" fill="url(#g2)" rx="2"/>
  <rect x="1024" y="176" width="30" height="424" fill="url(#g3)" rx="2"/>
  <text x="965" y="358" text-anchor="middle" fill="white" font-size="9" font-family="DejaVu Sans,sans-serif">45</text>
  <text x="1002" y="374" text-anchor="middle" fill="white" font-size="9" font-family="DejaVu Sans,sans-serif">42</text>
  <text x="1039" y="172" text-anchor="middle" fill="white" font-size="9" font-family="DejaVu Sans,sans-serif">80</text>
  <text x="1002" y="620" text-anchor="middle" fill="white" font-size="11" font-family="DejaVu Sans,sans-serif" transform="rotate(-30,1002,620)">Swift</text>
  <rect x="1070" y="293" width="30" height="307" fill="url(#g1)" rx="2"/>
  <rect x="1107" y="325" width="30" height="275" fill="url(#g2)" rx="2"/>
  <rect x="1144" y="203" width="30" height="397" fill="url(#g3)" rx="2"/>
  <text x="1085" y="289" text-anchor="middle" fill="white" font-size="9" font-family="DejaVu Sans,sans-serif">58</text>
  <text x="1122" y="321" text-anchor="middle" fill="white" font-size="9" font-family="DejaVu Sans,sans-serif">52</text>
  <text x="1159" y="199" text-anchor="middle" fill="white" font-size="9" font-family="DejaVu Sans,sans-serif">75</text>
  <text x="1122" y="620" text-anchor="middle" fill="white" font-size="11" font-family="DejaVu Sans,sans-serif" transform="rotate(-30,1122,620)">Kotlin</text>
  <rect x="950" y="75" width="190" height="80" fill="#16213e" fill-opacity="0.8" stroke="#555577" stroke-width="1" rx="4"/>
  <rect x="960" y="80" width="15" height="15" fill="url(#g1)" rx="2"/>
  <text x="982" y="92" fill="white" font-size="12" font-family="DejaVu Sans,sans-serif">Chart Types</text>
  <rect x="960" y="102" width="15" height="15" fill="url(#g2)" rx="2"/>
  <text x="982" y="114" fill="white" font-size="12" font-family="DejaVu Sans,sans-serif">Popularity</text>
  <rect x="960" y="124" width="15" height="15" fill="url(#g3)" rx="2"/>
  <text x="982" y="136" fill="white" font-size="12" font-family="DejaVu Sans,sans-serif">Performance</text>
</svg>
