<?xml version="1.0" encoding="UTF-8"?>
<svg xmlns="http://www.w3.org/2000/svg" width="1200" height="700">
  <rect width="1200" height="700" fill="#16213e"/>
  <text x="600" y="35" text-anchor="middle" fill="white" font-size="20" font-weight="bold" font-family="DejaVu Sans,sans-serif">Language Popularity Trends (2018-2024)</text>
  <text x="25" y="345" text-anchor="middle" fill="white" font-size="14" font-family="DejaVu Sans,sans-serif" transform="rotate(-90,25,345)">Popularity Index</text>
  <text x="620" y="680" text-anchor="middle" fill="white" font-size="14" font-family="DejaVu Sans,sans-serif">Year</text>
  <line x1="80" y1="620" x2="1160" y2="620" stroke="#333355" stroke-width="0.5" stroke-dasharray="4,4"/>
  <text x="70" y="624" text-anchor="end" fill="white" font-size="11" font-family="DejaVu Sans,sans-serif">0</text>
  <line x1="80" y1="510" x2="1160" y2="510" stroke="#333355" stroke-width="0.5" stroke-dasharray="4,4"/>
  <text x="70" y="514" text-anchor="end" fill="white" font-size="11" font-family="DejaVu Sans,sans-serif">20</text>
  <line x1="80" y1="400" x2="1160" y2="400" stroke="#333355" stroke-width="0.5" stroke-dasharray="4,4"/>
  <text x="70" y="404" text-anchor="end" fill="white" font-size="11" font-family="DejaVu Sans,sans-serif">40</text>
  <line x1="80" y1="290" x2="1160" y2="290" stroke="#333355" stroke-width="0.5" stroke-dasharray="4,4"/>
  <text x="70" y="294" text-anchor="end" fill="white" font-size="11" font-family="DejaVu Sans,sans-serif">60</text>
  <line x1="80" y1="180" x2="1160" y2="180" stroke="#333355" stroke-width="0.5" stroke-dasharray="4,4"/>
  <text x="70" y="184" text-anchor="end" fill="white" font-size="11" font-family="DejaVu Sans,sans-serif">80</text>
  <line x1="80" y1="70" x2="1160" y2="70" stroke="#333355" stroke-width="0.5" stroke-dasharray="4,4"/>
  <text x="70" y="74" text-anchor="end" fill="white" font-size="11" font-family="DejaVu Sans,sans-serif">100</text>
  <line x1="80" y1="70" x2="80" y2="620" stroke="#333355" stroke-width="0.5" stroke-dasharray="4,4"/>
  <text x="80" y="640" text-anchor="middle" fill="white" font-size="11" font-family="DejaVu Sans,sans-serif">2018</text>
  <line x1="260" y1="70" x2="260" y2="620" stroke="#333355" stroke-width="0.5" stroke-dasharray="4,4"/>
  <text x="260" y="640" text-anchor="middle" fill="white" font-size="11" font-family="DejaVu Sans,sans-serif">2019</text>
  <line x1="440" y1="70" x2="440" y2="620" stroke="#333355" stroke-width="0.5" stroke-dasharray="4,4"/>
  <text x="440" y="640" text-anchor="middle" fill="white" font-size="11" font-family="DejaVu Sans,sans-serif">2020</text>
  <line x1="620" y1="70" x2="620" y2="620" stroke="#333355" stroke-width="0.5" stroke-dasharray="4,4"/>
  <text x="620" y="640" text-anchor="middle" fill="white" font-size="11" font-family="DejaVu Sans,sans-serif">2021</text>
  <line x1="800" y1="70" x2="800" y2="620" stroke="#333355" stroke-width="0.5" stroke-dasharray="4,4"/>
  <text x="800" y="640" text-anchor="middle" fill="white" font-size="11" font-family="DejaVu Sans,sans-serif">2022</text>
  <line x1="980" y1="70" x2="980" y2="620" stroke="#333355" stroke-width="0.5" stroke-dasharray="4,4"/>
  <text x="980" y="640" text-anchor="middle" fill="white" font-size="11" font-family="DejaVu Sans,sans-serif">2023</text>
  <line x1="1160" y1="70" x2="1160" y2="620" stroke="#333355" stroke-width="0.5" stroke-dasharray="4,4"/>
  <text x="1160" y="640" text-anchor="middle" fill="white" font-size="11" font-family="DejaVu Sans,sans-serif">2024</text>
  <line x1="80" y1="70" x2="80" y2="620" stroke="#888888" stroke-width="1.5"/>
  <line x1="80" y1="620" x2="1160" y2="620" stroke="#888888" stroke-width="1.5"/>
  <polyline points="80,246,260,224,440,191,620,164,800,142,980,125,1160,114" fill="none" stroke="#ff6b6b" stroke-width="2.5" stroke-linecap="round" stroke-linejoin="round"/>
  <circle cx="80" cy="246" r="4" fill="#ff6b6b" stroke="#16213e" stroke-width="1.5"/>
  <circle cx="260" cy="224" r="4" fill="#ff6b6b" stroke="#16213e" stroke-width="1.5"/>
  <circle cx="440" cy="191" r="4" fill="#ff6b6b" stroke="#16213e" stroke-width="1.5"/>
  <circle cx="620" cy="164" r="4" fill="#ff6b6b" stroke="#16213e" stroke-width="1.5"/>
  <circle cx="800" cy="142" r="4" fill="#ff6b6b" stroke="#16213e" stroke-width="1.5"/>
  <circle cx="980" cy="125" r="4" fill="#ff6b6b" stroke="#16213e" stroke-width="1.5"/>
  <circle cx="1160" cy="114" r="4" fill="#ff6b6b" stroke="#16213e" stroke-width="1.5"/>
  <polyline points="80,180,260,169,440,158,620,153,800,147,980,142,1160,136" fill="none" stroke="#4ecdc4" stroke-width="2.5" stroke-linecap="round" stroke-linejoin="round"/>
  <circle cx="80" cy="180" r="4" fill="#4ecdc4" stroke="#16213e" stroke-width="1.5"/>
  <circle cx="260" cy="169" r="4" fill="#4ecdc4" stroke="#16213e" stroke-width="1.5"/>
  <circle cx="440" cy="158" r="4" fill="#4ecdc4" stroke="#16213e" stroke-width="1.5"/>
  <circle cx="620" cy="153" r="4" fill="#4ecdc4" stroke="#16213e" stroke-width="1.5"/>
  <circle cx="800" cy="147" r="4" fill="#4ecdc4" stroke="#16213e" stroke-width="1.5"/>
  <circle cx="980" cy="142" r="4" fill="#4ecdc4" stroke="#16213e" stroke-width="1.5"/>
  <circle cx="1160" cy="136" r="4" fill="#4ecdc4" stroke="#16213e" stroke-width="1.5"/>
  <polyline points="80,318,260,312,440,307,620,301,800,296,980,290,1160,290" fill="none" stroke="#ffc300" stroke-width="2.5" stroke-linecap="round" stroke-linejoin="round"/>
  <circle cx="80" cy="318" r="4" fill="#ffc300" stroke="#16213e" stroke-width="1.5"/>
  <circle cx="260" cy="312" r="4" fill="#ffc300" stroke="#16213e" stroke-width="1.5"/>
  <circle cx="440" cy="307" r="4" fill="#ffc300" stroke="#16213e" stroke-width="1.5"/>
  <circle cx="620" cy="301" r="4" fill="#ffc300" stroke="#16213e" stroke-width="1.5"/>
  <circle cx="800" cy="296" r="4" fill="#ffc300" stroke="#16213e" stroke-width="1.5"/>
  <circle cx="980" cy="290" r="4" fill="#ffc300" stroke="#16213e" stroke-width="1.5"/>
  <circle cx="1160" cy="290" r="4" fill="#ffc300" stroke="#16213e" stroke-width="1.5"/>
  <polyline points="80,483,260,455,440,428,620,411,800,389,980,378,1160,373" fill="none" stroke="#00a8ff" stroke-width="2.5" stroke-linecap="round" stroke-linejoin="round"/>
  <circle cx="80" cy="483" r="4" fill="#00a8ff" stroke="#16213e" stroke-width="1.5"/>
  <circle cx="260" cy="455" r="4" fill="#00a8ff" stroke="#16213e" stroke-width="1.5"/>
  <circle cx="440" cy="428" r="4" fill="#00a8ff" stroke="#16213e" stroke-width="1.5"/>
  <circle cx="620" cy="411" r="4" fill="#00a8ff" stroke="#16213e" stroke-width="1.5"/>
  <circle cx="800" cy="389" r="4" fill="#00a8ff" stroke="#16213e" stroke-width="1.5"/>
  <circle cx="980" cy="378" r="4" fill="#00a8ff" stroke="#16213e" stroke-width="1.5"/>
  <circle cx="1160" cy="373" r="4" fill="#00a8ff" stroke="#16213e" stroke-width="1.5"/>
  <polyline points="80,565,260,538,440,499,620,466,800,444,980,428,1160,411" fill="none" stroke="#a973ff" stroke-width="2.5" stroke-linecap="round" stroke-linejoin="round"/>
  <circle cx="80" cy="565" r="4" fill="#a973ff" stroke="#16213e" stroke-width="1.5"/>
  <circle cx="260" cy="538" r="4" fill="#a973ff" stroke="#16213e" stroke-width="1.5"/>
  <circle cx="440" cy="499" r="4" fill="#a973ff" stroke="#16213e" stroke-width="1.5"/>
  <circle cx="620" cy="466" r="4" fill="#a973ff" stroke="#16213e" stroke-width="1.5"/>
  <circle cx="800" cy="444" r="4" fill="#a973ff" stroke="#16213e" stroke-width="1.5"/>
  <circle cx="980" cy="428" r="4" fill="#a973ff" stroke="#16213e" stroke-width="1.5"/>
  <circle cx="1160" cy="411" r="4" fill="#a973ff" stroke="#16213e" stroke-width="1.5"/>
  <rect x="970" y="75" width="170" height="120" fill="#16213e" fill-opacity="0.8" stroke="#555577" stroke-width="1" rx="4"/>
  <line x1="980" y1="88" x2="1000" y2="88" stroke="#ff6b6b" stroke-width="2.5" stroke-linecap="round"/>
  <circle cx="990" cy="88" r="3" fill="#ff6b6b"/>
  <text x="1008" y="92" fill="white" font-size="12" font-family="DejaVu Sans,sans-serif">Python</text>
  <line x1="980" y1="110" x2="1000" y2="110" stroke="#4ecdc4" stroke-width="2.5" stroke-linecap="round"/>
  <circle cx="990" cy="110" r="3" fill="#4ecdc4"/>
  <text x="1008" y="114" fill="white" font-size="12" font-family="DejaVu Sans,sans-serif">JavaScript</text>
  <line x1="980" y1="132" x2="1000" y2="132" stroke="#ffc300" stroke-width="2.5" stroke-linecap="round"/>
  <circle cx="990" cy="132" r="3" fill="#ffc300"/>
  <text x="1008" y="136" fill="white" font-size="12" font-family="DejaVu Sans,sans-serif">C++</text>
  <line x1="980" y1="154" x2="1000" y2="154" stroke="#00a8ff" stroke-width="2.5" stroke-linecap="round"/>
  <circle cx="990" cy="154" r="3" fill="#00a8ff"/>
  <text x="1008" y="158" fill="white" font-size="12" font-family="DejaVu Sans,sans-serif">Go</text>
  <line x1="980" y1="176" x2="1000" y2="176" stroke="#a973ff" stroke-width="2.5" stroke-linecap="round"/>
  <circle cx="990" cy="176" r="3" fill="#a973ff"/>
  <text x="1008" y="180" fill="white" font-size="12" font-family="DejaVu Sans,sans-serif">Rust</text>
</svg>
